<svg width="800" height="600" viewBox="0 0 800 600" fill="none" xmlns="http://www.w3.org/2000/svg">
  <rect width="800" height="600" fill="#FAFAFA"/>
  
  <!-- Formes abstraites -->
  <circle cx="400" cy="300" r="250" fill="url(#gradient1)" opacity="0.1"/>
  <circle cx="200" cy="150" r="100" fill="url(#gradient2)" opacity="0.15"/>
  <circle cx="600" cy="450" r="150" fill="url(#gradient3)" opacity="0.1"/>
  
  <!-- Motif de points -->
  <g opacity="0.3">
    <circle cx="100" cy="100" r="4" fill="#1A1A1A"/>
    <circle cx="150" cy="100" r="4" fill="#1A1A1A"/>
    <circle cx="200" cy="100" r="4" fill="#1A1A1A"/>
    <circle cx="250" cy="100" r="4" fill="#1A1A1A"/>
    <circle cx="300" cy="100" r="4" fill="#1A1A1A"/>
    <circle cx="350" cy="100" r="4" fill="#1A1A1A"/>
    <circle cx="400" cy="100" r="4" fill="#1A1A1A"/>
    <circle cx="450" cy="100" r="4" fill="#1A1A1A"/>
    <circle cx="500" cy="100" r="4" fill="#1A1A1A"/>
    <circle cx="550" cy="100" r="4" fill="#1A1A1A"/>
    <circle cx="600" cy="100" r="4" fill="#1A1A1A"/>
    <circle cx="650" cy="100" r="4" fill="#1A1A1A"/>
    <circle cx="700" cy="100" r="4" fill="#1A1A1A"/>
    
    <circle cx="100" cy="150" r="4" fill="#1A1A1A"/>
    <circle cx="150" cy="150" r="4" fill="#1A1A1A"/>
    <circle cx="200" cy="150" r="4" fill="#1A1A1A"/>
    <circle cx="250" cy="150" r="4" fill="#1A1A1A"/>
    <circle cx="300" cy="150" r="4" fill="#1A1A1A"/>
    <circle cx="350" cy="150" r="4" fill="#1A1A1A"/>
    <circle cx="400" cy="150" r="4" fill="#1A1A1A"/>
    <circle cx="450" cy="150" r="4" fill="#1A1A1A"/>
    <circle cx="500" cy="150" r="4" fill="#1A1A1A"/>
    <circle cx="550" cy="150" r="4" fill="#1A1A1A"/>
    <circle cx="600" cy="150" r="4" fill="#1A1A1A"/>
    <circle cx="650" cy="150" r="4" fill="#1A1A1A"/>
    <circle cx="700" cy="150" r="4" fill="#1A1A1A"/>
    
    <circle cx="100" cy="200" r="4" fill="#1A1A1A"/>
    <circle cx="150" cy="200" r="4" fill="#1A1A1A"/>
    <circle cx="200" cy="200" r="4" fill="#1A1A1A"/>
    <circle cx="250" cy="200" r="4" fill="#1A1A1A"/>
    <circle cx="300" cy="200" r="4" fill="#1A1A1A"/>
    <circle cx="350" cy="200" r="4" fill="#1A1A1A"/>
    <circle cx="400" cy="200" r="4" fill="#1A1A1A"/>
    <circle cx="450" cy="200" r="4" fill="#1A1A1A"/>
    <circle cx="500" cy="200" r="4" fill="#1A1A1A"/>
    <circle cx="550" cy="200" r="4" fill="#1A1A1A"/>
    <circle cx="600" cy="200" r="4" fill="#1A1A1A"/>
    <circle cx="650" cy="200" r="4" fill="#1A1A1A"/>
    <circle cx="700" cy="200" r="4" fill="#1A1A1A"/>
    
    <circle cx="100" cy="250" r="4" fill="#1A1A1A"/>
    <circle cx="150" cy="250" r="4" fill="#1A1A1A"/>
    <circle cx="200" cy="250" r="4" fill="#1A1A1A"/>
    <circle cx="250" cy="250" r="4" fill="#1A1A1A"/>
    <circle cx="300" cy="250" r="4" fill="#1A1A1A"/>
    <circle cx="350" cy="250" r="4" fill="#1A1A1A"/>
    <circle cx="400" cy="250" r="4" fill="#1A1A1A"/>
    <circle cx="450" cy="250" r="4" fill="#1A1A1A"/>
    <circle cx="500" cy="250" r="4" fill="#1A1A1A"/>
    <circle cx="550" cy="250" r="4" fill="#1A1A1A"/>
    <circle cx="600" cy="250" r="4" fill="#1A1A1A"/>
    <circle cx="650" cy="250" r="4" fill="#1A1A1A"/>
    <circle cx="700" cy="250" r="4" fill="#1A1A1A"/>
    
    <circle cx="100" cy="300" r="4" fill="#1A1A1A"/>
    <circle cx="150" cy="300" r="4" fill="#1A1A1A"/>
    <circle cx="200" cy="300" r="4" fill="#1A1A1A"/>
    <circle cx="250" cy="300" r="4" fill="#1A1A1A"/>
    <circle cx="300" cy="300" r="4" fill="#1A1A1A"/>
    <circle cx="350" cy="300" r="4" fill="#1A1A1A"/>
    <circle cx="400" cy="300" r="4" fill="#1A1A1A"/>
    <circle cx="450" cy="300" r="4" fill="#1A1A1A"/>
    <circle cx="500" cy="300" r="4" fill="#1A1A1A"/>
    <circle cx="550" cy="300" r="4" fill="#1A1A1A"/>
    <circle cx="600" cy="300" r="4" fill="#1A1A1A"/>
    <circle cx="650" cy="300" r="4" fill="#1A1A1A"/>
    <circle cx="700" cy="300" r="4" fill="#1A1A1A"/>
    
    <circle cx="100" cy="350" r="4" fill="#1A1A1A"/>
    <circle cx="150" cy="350" r="4" fill="#1A1A1A"/>
    <circle cx="200" cy="350" r="4" fill="#1A1A1A"/>
    <circle cx="250" cy="350" r="4" fill="#1A1A1A"/>
    <circle cx="300" cy="350" r="4" fill="#1A1A1A"/>
    <circle cx="350" cy="350" r="4" fill="#1A1A1A"/>
    <circle cx="400" cy="350" r="4" fill="#1A1A1A"/>
    <circle cx="450" cy="350" r="4" fill="#1A1A1A"/>
    <circle cx="500" cy="350" r="4" fill="#1A1A1A"/>
    <circle cx="550" cy="350" r="4" fill="#1A1A1A"/>
    <circle cx="600" cy="350" r="4" fill="#1A1A1A"/>
    <circle cx="650" cy="350" r="4" fill="#1A1A1A"/>
    <circle cx="700" cy="350" r="4" fill="#1A1A1A"/>
    
    <circle cx="100" cy="400" r="4" fill="#1A1A1A"/>
    <circle cx="150" cy="400" r="4" fill="#1A1A1A"/>
    <circle cx="200" cy="400" r="4" fill="#1A1A1A"/>
    <circle cx="250" cy="400" r="4" fill="#1A1A1A"/>
    <circle cx="300" cy="400" r="4" fill="#1A1A1A"/>
    <circle cx="350" cy="400" r="4" fill="#1A1A1A"/>
    <circle cx="400" cy="400" r="4" fill="#1A1A1A"/>
    <circle cx="450" cy="400" r="4" fill="#1A1A1A"/>
    <circle cx="500" cy="400" r="4" fill="#1A1A1A"/>
    <circle cx="550" cy="400" r="4" fill="#1A1A1A"/>
    <circle cx="600" cy="400" r="4" fill="#1A1A1A"/>
    <circle cx="650" cy="400" r="4" fill="#1A1A1A"/>
    <circle cx="700" cy="400" r="4" fill="#1A1A1A"/>
    
    <circle cx="100" cy="450" r="4" fill="#1A1A1A"/>
    <circle cx="150" cy="450" r="4" fill="#1A1A1A"/>
    <circle cx="200" cy="450" r="4" fill="#1A1A1A"/>
    <circle cx="250" cy="450" r="4" fill="#1A1A1A"/>
    <circle cx="300" cy="450" r="4" fill="#1A1A1A"/>
    <circle cx="350" cy="450" r="4" fill="#1A1A1A"/>
    <circle cx="400" cy="450" r="4" fill="#1A1A1A"/>
    <circle cx="450" cy="450" r="4" fill="#1A1A1A"/>
    <circle cx="500" cy="450" r="4" fill="#1A1A1A"/>
    <circle cx="550" cy="450" r="4" fill="#1A1A1A"/>
    <circle cx="600" cy="450" r="4" fill="#1A1A1A"/>
    <circle cx="650" cy="450" r="4" fill="#1A1A1A"/>
    <circle cx="700" cy="450" r="4" fill="#1A1A1A"/>
    
    <circle cx="100" cy="500" r="4" fill="#1A1A1A"/>
    <circle cx="150" cy="500" r="4" fill="#1A1A1A"/>
    <circle cx="200" cy="500" r="4" fill="#1A1A1A"/>
    <circle cx="250" cy="500" r="4" fill="#1A1A1A"/>
    <circle cx="300" cy="500" r="4" fill="#1A1A1A"/>
    <circle cx="350" cy="500" r="4" fill="#1A1A1A"/>
    <circle cx="400" cy="500" r="4" fill="#1A1A1A"/>
    <circle cx="450" cy="500" r="4" fill="#1A1A1A"/>
    <circle cx="500" cy="500" r="4" fill="#1A1A1A"/>
    <circle cx="550" cy="500" r="4" fill="#1A1A1A"/>
    <circle cx="600" cy="500" r="4" fill="#1A1A1A"/>
    <circle cx="650" cy="500" r="4" fill="#1A1A1A"/>
    <circle cx="700" cy="500" r="4" fill="#1A1A1A"/>
  </g>
  
  <!-- Formes décoratives -->
  <path d="M50 50C150 100 100 200 200 250C300 300 250 400 350 450C450 500 400 550 500 550" stroke="#FCED2F" stroke-width="8" stroke-linecap="round" opacity="0.7"/>
  <path d="M750 50C650 100 700 200 600 250C500 300 550 400 450 450C350 500 400 550 300 550" stroke="#FCED2F" stroke-width="8" stroke-linecap="round" opacity="0.7"/>
  
  <!-- Dégradés -->
  <defs>
    <linearGradient id="gradient1" x1="0%" y1="0%" x2="100%" y2="100%">
      <stop offset="0%" stop-color="#FCED2F"/>
      <stop offset="100%" stop-color="#1A1A1A"/>
    </linearGradient>
    <linearGradient id="gradient2" x1="100%" y1="0%" x2="0%" y2="100%">
      <stop offset="0%" stop-color="#FCED2F"/>
      <stop offset="100%" stop-color="#1A1A1A"/>
    </linearGradient>
    <linearGradient id="gradient3" x1="0%" y1="100%" x2="100%" y2="0%">
      <stop offset="0%" stop-color="#FCED2F"/>
      <stop offset="100%" stop-color="#1A1A1A"/>
    </linearGradient>
  </defs>
</svg> 